<svg xmlns="http://www.w3.org/2000/svg" xmlns:xlink="http://www.w3.org/1999/xlink" viewBox="0 0 292 172"><defs><style>.cls-1{font-size:29.1px;font-family:Poppins-Bold, Poppins;font-weight:700;}.cls-1,.cls-2{fill:#fff;}.cls-2{font-size:45.61px;font-family:Poppins-Thin, Poppins;font-weight:200;}.cls-3{fill:url(#Degradado_sin_nombre_5);}</style><linearGradient id="Degradado_sin_nombre_5" x1="68.9" y1="85.35" x2="140.91" y2="85.35" gradientUnits="userSpaceOnUse"><stop offset="0" stop-color="#fff"/><stop offset="1" stop-color="#662d91"/></linearGradient></defs><title>html</title><g id="Capa_2" data-name="Capa 2"><text class="cls-1" transform="translate(166.69 64.61)">HTML5</text><text class="cls-2" transform="translate(30.5 102.1)">50%</text><path class="cls-3" d="M68.9,18.84c27.56.26,53.16,17.51,62.52,43.72a67.31,67.31,0,0,1-19.82,73.81,67,67,0,0,1-42.7,15.5c-6.43.06-6.45,10.06,0,10a77.5,77.5,0,0,0,71.71-49.82c11.26-29.76,2-64.86-22.43-85.21a77.73,77.73,0,0,0-49.28-18c-6.44-.07-6.44,9.93,0,10Z"/></g></svg>