<svg xmlns="http://www.w3.org/2000/svg" xmlns:xlink="http://www.w3.org/1999/xlink" viewBox="0 0 343 172"><defs><style>.cls-1{font-size:29.1px;font-family:Poppins-Bold, Poppins;font-weight:700;}.cls-1,.cls-2{fill:#fff;}.cls-2{font-size:45.61px;font-family:Poppins-Thin, Poppins;font-weight:200;}.cls-3{fill:url(#Degradado_sin_nombre_5);}</style><linearGradient id="Degradado_sin_nombre_5" x1="22.03" y1="89.53" x2="152.79" y2="89.53" gradientUnits="userSpaceOnUse"><stop offset="0" stop-color="#fff"/><stop offset="1" stop-color="#662d91"/></linearGradient></defs><title>illustrator</title><g id="Capa_2" data-name="Capa 2"><text class="cls-1" transform="translate(182.36 54.92)">Adobe <tspan x="0" y="34.92">Illustrator</tspan></text><text class="cls-2" transform="translate(41.07 104.21)">65%</text><path class="cls-3" d="M80.78,23c35.68.35,65.8,29.13,66.5,65.11.69,35.63-27.94,66.49-63.7,67.87a67.22,67.22,0,0,1-56.83-27.61c-3.74-5.16-12.42-.18-8.63,5.05,13.1,18,32.64,29.82,54.91,32.2a76.86,76.86,0,0,0,57-17.59c31.75-26.45,35.81-74.84,10.07-106.78-14.43-17.89-36.47-28-59.34-28.25-6.44-.06-6.45,9.94,0,10Z"/></g></svg>